<svg width="128" height="128" viewBox="0 0 128 128" fill="none" xmlns="http://www.w3.org/2000/svg">
  <defs>
    <linearGradient id="bg" x1="18" y1="14" x2="110" y2="112" gradientUnits="userSpaceOnUse">
      <stop offset="0" stop-color="#24150F"/>
      <stop offset="0.52" stop-color="#1B2436"/>
      <stop offset="1" stop-color="#2563EB"/>
    </linearGradient>
    <linearGradient id="stroke" x1="30" y1="30" x2="98" y2="98" gradientUnits="userSpaceOnUse">
      <stop offset="0" stop-color="#F8EBBF" stop-opacity="0"/>
      <stop offset="0.35" stop-color="#F8EBBF"/>
      <stop offset="0.55" stop-color="#FFFFFF"/>
      <stop offset="0.75" stop-color="#F8EBBF"/>
      <stop offset="1" stop-color="#F8EBBF" stop-opacity="0"/>
    </linearGradient>
  </defs>

  <rect x="8" y="8" width="112" height="112" rx="28" fill="url(#bg)"/>
  <rect x="16" y="16" width="96" height="96" rx="22" stroke="rgba(255,255,255,0.16)" stroke-width="2"/>
  <circle cx="64" cy="64" r="34" fill="rgba(255,255,255,0.04)"/>
  <path d="M30 82L98 40" stroke="url(#stroke)" stroke-width="8" stroke-linecap="round"/>

  <path
    d="M43 38H56.4C62.7 38 67.6 40.5 70.3 44.9C72.7 48.8 72.8 53.7 70.6 57.4C68.9 60.3 66.1 62.4 62.5 63.2L70.8 88H60.8L53.7 65H46V88H43V38Z"
    fill="#F7F3EC"
  />
  <path
    d="M46 45V56H55C59.7 56 62.8 53.8 62.8 50.5C62.8 47.2 59.7 45 55 45H46Z"
    fill="#24150F"
    fill-opacity="0.18"
  />
  <path
    d="M73.6 38H84L78.3 47.3L73.7 38H86.1L76.6 53.1V88H67.9V53.2L58.4 38H68.7L73.6 46.9L78.5 38H73.6Z"
    fill="#F7F3EC"
  />
  <path d="M43.5 92H84.5" stroke="#F8EBBF" stroke-width="3.2" stroke-linecap="round" opacity="0.9"/>
</svg>
